<svg viewBox="0 0 420 255" xmlns="http://www.w3.org/2000/svg">
  <path fill="#000000" d="m 232.50391,10 -1.15235,0.929688 c -1.48367,1.198643 -3.29919,2.122571 -5.35547,2.853515 -0.18097,-0.416835 -0.26619,-0.862419 -0.12695,-1.472656 l 0.51953,-2.283203 -2.00976,1.203125 c -1.06428,0.637122 -1.97703,1.326851 -2.80079,2.052734 0.0129,-0.146345 -0.002,-0.22886 0.0215,-0.392578 l 0.34375,-2.429687 -1.94531,1.498046 c -0.99889,0.769393 -2.24193,1.416234 -3.38477,2.015625 -0.0249,-0.08959 -0.16929,-0.260276 -0.17773,-0.34375 -0.0267,-0.263801 0.0689,-0.733071 -0.1543,-1.404296 l -0.35352,-1.066407 -1.01757,0.47461 c -1.86108,0.868688 -3.32657,1.906563 -4.64258,2.990234 -0.0423,-0.07977 -0.0215,-0.03056 -0.0606,-0.130859 -0.19798,-0.508904 -0.39475,-1.176811 -0.64844,-1.800782 l -0.4707,-1.158203 -1.02539,0.712891 c -0.90879,0.631272 -1.69841,1.714585 -2.41797,2.943359 -0.0254,-0.0686 -0.0232,-0.105998 -0.0547,-0.177734 l -0.69531,-1.585938 -1.02539,1.396485 c -0.45854,0.623729 -1.18938,1.032383 -1.92187,1.486328 -0.0394,-0.138381 -0.0763,-0.237191 -0.11719,-0.402344 l -0.61328,-2.478515 -1.23243,2.236328 c -0.1109,0.201365 -0.27924,0.248825 -0.40039,0.410156 0.002,-0.275417 0.004,-0.513822 -0.01,-0.847656 l -0.0703,-1.751953 -1.47071,0.953125 c -1.42702,0.923749 -2.59123,2.121699 -3.73047,3.234374 -0.046,-0.31528 -0.18386,-0.545722 -0.16992,-0.886718 l 0.10742,-2.642578 -1.83007,1.910156 c -0.19924,0.20799 -0.40815,0.420853 -0.58594,0.632812 l 0.0918,-1.664062 -1.51172,0.703125 c -1.57471,0.73186 -2.40817,1.465728 -2.92578,2.152344 -0.003,0.0044 -0.005,0.0054 -0.008,0.0098 0.002,-0.05746 -0.003,-0.0876 0,-0.146484 l 0.082,-1.84375 -1.58984,0.9375 c -1.28918,0.759298 -2.25265,1.905528 -3.14844,2.884765 -0.0453,-0.0992 -0.0569,-0.123926 -0.11328,-0.24414 l -0.73633,-1.570313 -0.99023,1.423828 c -0.83743,1.205663 -2.43647,2.503637 -3.85938,3.708985 -0.0808,-0.216298 -0.16559,-0.25408 -0.22851,-0.5625 l -0.54297,-2.66211 -1.3125,2.378907 c -0.67559,1.223904 -1.25324,1.872699 -1.85156,2.648437 -0.006,-0.149976 -0.0116,-0.227547 -0.0234,-0.392578 l -0.21289,-2.958984 -1.62305,2.484375 c -0.96082,1.470601 -2.15322,2.723131 -3.62304,3.787109 -0.24154,-0.396329 -0.45853,-0.740143 -0.79297,-1.400391 l -0.66407,-1.30664 -0.97461,1.09375 c -1.45841,1.63553 -2.48193,3.808313 -3.3789,5.636719 -0.003,-0.0055 -0.004,-0.0042 -0.008,-0.0098 l -0.95508,-1.529297 -0.79102,1.619141 c -0.30802,0.630816 -0.42989,1.359302 -0.6582,2.078125 l -0.85352,-1.234375 -0.79297,1.347656 c -0.56534,0.96022 -0.79787,1.937155 -0.93554,2.878906 l -0.54102,-1.105469 -0.91992,1.730469 c -0.66126,1.245127 -1.14889,2.7004 -1.6582,4.113281 -0.2082,-0.347401 -0.40258,-0.531302 -0.61133,-0.941406 l -0.99609,-1.957031 -0.82227,2.037109 c -0.33165,0.821839 -0.60295,2.023513 -0.83789,3.189453 -0.11304,-0.05186 -0.0877,-0.02373 -0.28906,-0.123046 l -0.92578,-0.457032 -0.42774,0.941407 c -0.22032,0.485874 -0.23159,0.912828 -0.30469,1.359375 -0.0443,-0.07479 -0.0923,-0.108383 -0.13672,-0.1875 l -1.52539,-2.714844 -0.33984,3.095703 c -0.17175,1.556905 -0.89697,3.121953 -1.5293,4.751953 -0.0769,-0.100036 -0.12227,-0.171373 -0.21093,-0.273437 l -1.27344,-1.464844 -0.45313,1.886719 c -0.37659,1.566831 -0.37813,2.838116 -0.33789,4.033203 -0.38394,-0.175837 -0.66238,-0.236934 -1.24804,-0.529297 l -2.60743,-1.300781 1.25782,2.626953 c 0.31525,0.658699 0.45578,1.309923 0.65625,1.96289 -0.12633,0.02533 -0.29979,0.04357 -0.40039,0.0625 l -1.06446,0.199219 0.28321,1.044922 c 0.26294,0.969932 0.53481,1.562589 0.80468,2.253906 -0.44904,0.01096 -0.76274,0.05789 -1.44922,-0.0059 l -1.6289,-0.150391 0.60742,1.517578 c 0.17062,0.426545 0.3714,0.834858 0.56445,1.248047 -0.0398,-0.01193 -0.0873,-0.0026 -0.12695,-0.01563 l -2.47656,-0.816406 1.29687,2.263672 c 0.71978,1.25643 1.05283,2.403876 1.46289,3.574219 -0.31162,-0.09404 -0.56502,-0.07619 -0.89843,-0.214844 l -2.19532,-0.91211 0.88282,2.207032 c 0.72459,1.813711 1.23165,3.511245 1.69726,5.304687 -0.87744,0.198416 -1.56102,0.486909 -2.08594,0.640625 l -1.18945,0.34961 0.59375,1.089843 c 1.17813,2.162179 1.90562,3.865602 2.61524,5.552735 -0.0485,9.5e-4 -0.0667,0.01244 -0.11915,0.01367 l -1.67968,0.03906 0.83593,1.458984 c 0.82488,1.438349 1.61873,2.375839 2.40235,3.361329 -0.21188,0.03682 -0.33875,0.08808 -0.5918,0.138671 l -1.22265,0.244141 0.5039,1.140625 c 1.06575,2.407391 1.98237,3.572953 2.83008,4.455078 -0.30027,0.109977 -0.71216,0.129647 -0.96875,0.265625 l -0.91602,0.484375 0.51758,0.898438 c 1.14753,1.991944 1.95907,3.206908 2.61524,4.013672 l -0.85938,0.08594 0.46485,1.220702 c 0.79577,2.09563 1.56848,4.17558 2.30859,5.95117 0.74011,1.7756 1.41079,3.22614 2.17773,4.19532 1.29045,1.63075 2.39889,3.67415 4.20118,5.28515 2.16667,1.93666 4.68602,3.57604 7.42968,4.61914 4.23902,1.61159 8.77485,1.90262 13.08008,2.25196 4.05658,0.32915 8.23942,0.53808 12.375,-0.0996 1.05255,-0.16229 2.38709,-0.58328 3.57422,-0.97461 -1.13946,1.80249 -2.42655,3.90354 -3.74023,5.67578 -2.52212,3.40246 -5.37191,6.59029 -8.1836,9.84961 -3.14973,3.65119 -6.28245,7.29816 -9.60742,10.72851 -2.82732,2.91694 -8.94336,8.52735 -8.94336,8.52735 l -0.74023,0.67773 0.67968,0.73633 c 0,0 0.44804,0.49059 1.05274,0.9707 0.6047,0.48011 1.32167,1.12184 2.46094,0.97071 l 0.32031,-0.043 0.23437,-0.22266 c 3.36583,-3.18432 5.78268,-6.11703 8.2461,-8.78125 2.65093,-2.86704 5.79042,-6.20067 8.2207,-9.07227 l 0.002,-0.002 c 3.41603,-4.00619 6.78108,-8.07077 9.9961,-12.26367 1.73469,-2.26232 4.09591,-5.6492 4.93554,-6.84766 0.63731,1.06101 1.62688,2.79081 2.78711,4.16407 1.41276,1.67218 3.04672,3.09282 4.67969,4.42187 3.31544,2.6984 6.85167,5.10374 10.47266,7.31641 3.743,2.28722 7.63626,4.32031 11.60547,6.14843 3.27469,1.50826 6.63003,3.32942 10.39453,4.0879 0.72101,0.14527 1.56971,0.14869 2.29882,0.13867 0.72912,-0.01 1.31641,-0.0488 1.31641,-0.0488 l 2.76953,-0.18359 -1.81836,-1.31446 c 2.7239,0.75885 5.40125,1.27789 7.95117,1.12696 l 1.73829,-0.10352 -0.96485,-1.44922 c -0.0735,-0.11029 -0.24893,-0.34812 -0.36719,-0.5332 0.56535,0.13026 1.10362,0.29621 1.61329,0.50195 0.59985,0.24215 1.17596,0.5096 1.80468,0.69141 0.62873,0.1818 1.35581,0.27089 2.08789,0.0312 l 1.08985,-0.35742 -1.09766,-2.26172 c 1.4591,0.15545 2.95937,0.32771 4.36133,0.28906 2.00595,-0.0553 3.59961,-0.21289 3.59961,-0.21289 l 1.28906,-0.125 -0.44922,-1.21485 c 0,0 -0.28041,-0.3824 -0.32422,-0.48632 0.32167,-0.029 0.84148,0.0647 1.09375,-0.006 0.71222,-0.19922 1.05096,-0.42184 1.50977,-0.51367 l 2.61719,-0.52344 -2.31641,-1.32617 c -0.0935,-0.0535 -0.24452,-0.0603 -0.3418,-0.11133 1.40106,-0.59532 2.58768,-1.24018 3.5586,-1.75781 l 1.00195,-0.53321 -0.65625,-0.92578 c -0.19915,-0.28111 -0.40034,-0.25267 -0.62695,-0.37109 1.59437,-0.61332 2.99119,-1.31085 4.03125,-1.97657 l 1.59179,-1.01953 -1.61718,-0.68945 c 0.5721,-0.30687 1.09114,-0.67053 1.54687,-1.15039 l 0.89063,-0.9375 -1.13282,-0.62695 c -0.0182,-0.0101 -0.0255,-0.0588 -0.043,-0.0703 0.83211,-0.24979 1.60099,-0.5719 2.25781,-0.96289 l 1.5039,-0.89648 -1.53515,-0.83984 c -0.18015,-0.0986 -0.16114,-0.16331 -0.28516,-0.24805 1.84967,-0.87499 3.47835,-2.03458 4.77539,-3.55078 l 1.45899,-1.70508 -2.24414,0.0566 c -0.21454,0.005 -0.27884,-0.13278 -0.44141,-0.16211 0.50001,-0.5139 0.93749,-1.11303 1.51953,-1.35937 l 2.25195,-0.95313 -2.27343,-0.89844 c -0.17294,-0.0683 -0.29396,-0.10023 -0.46094,-0.15429 0.0884,-0.0384 0.15203,-0.0568 0.24023,-0.0977 0.76559,-0.35455 1.58812,-0.80016 2.02344,-1.71875 l 0.36914,-0.7793 -0.71679,-0.48047 c -0.1145,-0.0767 -0.3437,-0.10566 -0.47461,-0.18359 0.43571,-0.3187 0.94756,-0.54936 1.27929,-0.97656 l 1.19141,-1.5332 -1.93945,-0.0801 c -0.11165,-0.005 -0.31878,-0.11385 -0.41797,-0.125 0.92205,-1.34816 2.48304,-2.99228 2.875,-3.3086 l 1.71093,-1.3789 -2.16406,-0.38282 c -0.77361,-0.13671 -1.46213,-0.34838 -2.13867,-0.6582 1.43207,-1.59103 2.60991,-3.4264 3.68555,-5.28125 l 1.41211,-2.435546 -2.63086,0.998046 c -0.26665,0.10109 -0.67358,0.12425 -0.96485,0.21094 1.12242,-1.423735 2.17521,-2.938665 2.94336,-4.57422 l 0.92383,-1.966797 -1.92578,0.53125 c 0.97699,-1.935556 1.74447,-3.911169 2.39258,-5.640625 l 0.62695,-1.667969 -1.75,0.335938 c -0.43554,0.0835 -0.81822,0.04491 -1.23242,0.08008 0.6975,-1.186525 1.36589,-2.234698 2.21484,-4.080078 l 0.73828,-1.603516 -1.7539,0.191406 c -0.51998,0.05657 -1.27003,-0.219554 -1.97852,-0.435546 0.54942,-1.830201 1.3413,-3.383103 2.22266,-5.210938 l 0.90625,-1.880859 -2.0332,0.472656 c -0.29338,0.06811 -0.6175,0.0087 -0.87696,0.04297 0.49173,-0.925222 1.0577,-1.805249 1.33594,-2.861328 l 0.67773,-2.574219 -1.38086,0.933594 c 0.23426,-0.66806 0.45911,-1.356212 0.57227,-2.171875 l 0.13672,-0.992188 -0.99219,-0.136719 c -0.56797,-0.07796 -0.92487,3.1e-4 -1.10937,-0.01367 -0.0181,-0.0014 -0.0476,-0.03178 -0.0645,-0.0332 0.57529,-1.563414 1.34049,-3.361891 2.4375,-4.859375 l -1.34765,-1.43164 c -0.40759,0.262962 -1.31455,0.394302 -2.10352,0.583984 0.23484,-1.456619 0.45642,-3.034856 1.00195,-4.386719 l 0.74415,-1.845703 -1.92383,0.503906 c -0.28983,0.07574 -0.43311,0.142638 -0.63672,0.222657 0.22019,-0.437622 0.34886,-0.830406 0.71289,-1.365235 l 1.66016,-2.439453 -2.80079,0.925781 c -0.30827,0.101968 -0.58431,0.0099 -0.88086,0.0332 0.54611,-1.469627 1.0965,-2.935122 1.54688,-4.759766 l 0.46875,-1.904297 -1.81641,0.738281 c -0.33138,0.134746 -0.60281,0.191202 -0.91797,0.3125 0.22371,-0.647003 0.49225,-1.173383 0.63086,-1.984375 l 0.19727,-1.146484 -1.16406,-0.02148 c -0.26495,-0.005 -0.41708,0.09211 -0.65625,0.126953 0.40715,-1.285419 0.81669,-2.56065 1.4375,-3.837891 l 1.15429,-2.376953 -2.43945,1.017578 c -0.20969,0.08738 -0.45799,0.101696 -0.67578,0.164063 0.32678,-1.539158 0.64655,-3.07346 1.18359,-4.69336 l 0.5293,-1.595703 -1.6543,0.296875 c -0.18957,0.03399 -0.60146,0.02056 -0.79492,0.04492 0.53702,-1.885282 1.08448,-3.909642 1.91797,-5.580078 l 1.19922,-2.404297 -2.48047,1.035156 c -0.48157,0.201104 -0.85648,0.361459 -1.33398,0.476563 0.30114,-0.830473 0.49259,-1.591194 1.20312,-2.701172 L 276.62109,22 l -2.80468,1.269531 c 0.27698,-0.897911 0.51646,-1.895808 0.95117,-2.533203 0.91114,-1.33594 2.77707,-2.21904 4.30469,-3.880859 1.40682,-1.530418 3.55273,-4.632813 3.55273,-4.632813 l 1.42578,-2.042968 -2.44336,0.490234 c 0,0 -3.00668,0.584558 -4.6582,1.197266 -2.09459,0.777087 -3.90998,1.939837 -5.72266,2.828125 -1.4294,0.700456 -3.34417,1.623409 -4.31054,2.089843 -0.0863,-0.218873 -0.0709,-0.530994 -0.18555,-0.708984 l -0.59961,-0.931641 -0.86524,0.69336 c -0.10515,0.08415 -0.5245,0.252786 -0.7871,0.396484 0.0276,-0.09022 0.0399,-0.120503 0.0684,-0.220703 l 0.33008,-1.167969 -1.20898,-0.101562 c -1.7776,-0.150038 -3.05805,0.259816 -4.25195,0.623047 0.0638,-0.205016 -0.0152,-0.311039 0.11718,-0.585938 l 0.0176,-0.03516 1.18555,-2.462891 -2.51953,1.154297 c -1.18778,0.543704 -2.86129,1.024266 -4.44336,1.445313 0.006,-0.181974 0.016,-0.353178 0.0293,-0.46875 0.0145,-0.125677 0.0615,-0.22001 0,-0.08594 l 1.03125,-2.246094 -2.30273,0.896485 c -1.64736,0.641759 -4.09029,0.980258 -6.31445,1.189453 0.009,-0.481122 -0.0568,-1.046197 0.10937,-1.404297 L 244.79492,11.5625 c -0.21052,0.168674 -1.53852,0.732943 -3.04687,1.197266 -1.09163,0.336041 -2.29587,0.684751 -3.46289,1.03125 0.0166,-0.231703 -0.0604,-0.52388 0.0176,-0.734375 l 0.65039,-1.75586 -1.82031,0.435547 c -1.28254,0.306262 -2.5417,0.976934 -3.7832,1.601563 -0.003,-0.01398 -0.004,-0.0108 -0.008,-0.02539 -0.10524,-0.454785 -0.18117,-1.16998 -0.4043,-1.898437 z m -8.51368,4.078125 c 0.16163,0.581525 0.40951,1.131866 0.78516,1.59375 l 0.42969,0.527344 0.64844,-0.203125 c 1.199,-0.378697 2.30894,-0.850179 3.36328,-1.376953 -4.33543,7.790206 -6.81555,15.324074 -11.40821,22.578125 -1.93888,-7.684013 -0.53964,-14.198331 2.59571,-21.388672 0.0628,0.05412 0.0414,0.148381 0.11328,0.195312 L 221.27539,16.5 221.8418,15.794922 c 0.46445,-0.576485 1.37641,-1.144412 2.14843,-1.716797 z m -9.41211,0.03711 c 0.0685,0.364129 0.324,0.801299 0.5879,1.246094 -0.82317,2.952631 -3.89698,9.560117 -6.93946,15.326172 -1.55057,2.938615 -3.08593,5.668569 -4.28515,7.609375 -0.4163,0.673733 -0.71907,1.09431 -1.03516,1.546875 -2.22027,-7.882003 -2.71729,-13.157536 -1.43555,-21.005859 l 0.1543,0.08984 0.49219,-0.257812 c 0.8597,-0.450791 1.56129,-0.937268 2.19726,-1.480469 0.15287,0.365368 0.26469,0.757698 0.70508,1.048828 l 1,0.660156 0.4707,-1.101562 c 0.50482,-1.181583 1.14047,-2.117354 1.75196,-2.863281 0.037,0.101783 0.0623,0.184353 0.10156,0.285156 0.24411,0.627483 0.43476,1.314699 1.27344,1.732422 l 0.60742,0.302734 0.50586,-0.453125 c 1.0971,-0.982598 2.3799,-1.871038 3.84765,-2.685547 z m 17.05079,0.28125 c 0.0484,0.118764 0.0579,0.230997 0.13281,0.353516 0.20878,0.341674 0.64513,0.720737 1.16406,0.789063 l 0.30469,0.03906 0.27344,-0.136719 c 0.72376,-0.362142 1.31306,-0.548271 1.99023,-0.855468 -1.77579,4.291154 -2.09544,7.176413 -0.66211,12.222656 -1.77386,4.425382 -4.71589,12.993494 -6.83203,21.943359 -2.09225,8.848811 -3.38731,17.832721 -1.64844,23.630859 -0.64011,0.949547 -1.19392,1.911911 -1.78515,2.738282 -3.67326,5.13403 -6.77367,8.96963 -11.66797,14.892578 -3.29646,-20.931346 2.53587,-33.615257 5.4082,-49.767578 5.99329,-8.556098 8.27039,-17.192286 13.32227,-25.84961 z m 10.91015,0.191407 c -2.30334,3.090665 -4.42441,6.257156 -6.26953,9.632812 -0.66824,-3.045872 -0.49198,-5.106218 0.625,-7.916016 l 0.67383,-0.214843 c 1.44646,-0.459778 3.2109,-0.938772 4.76758,-1.417969 0.0851,-0.0262 0.11972,-0.0584 0.20312,-0.08398 z m 32.77539,0.310547 c -5.5946,4.403178 -11.76285,10.75318 -16.98633,17.589843 -0.46313,-2.470068 -0.005,-4.897648 1.00196,-7.33789 0.81608,-1.978568 1.97149,-3.91327 3.16797,-5.816407 l 0.96679,-0.363281 c 0.55267,-0.207874 1.17015,-0.597361 1.80078,-0.927734 8.1e-4,0.05168 0.0315,0.05674 0.0293,0.115234 l -0.0644,1.662109 1.49805,-0.722656 c 0,0 3.58402,-1.727871 5.3789,-2.607422 1.12812,-0.552828 2.15485,-1.047106 3.20703,-1.591796 z m -56.79492,0.257812 c -3.46732,8.037495 -5.12375,15.600727 -2.17383,24.707031 -2.90616,16.370511 -9.24655,29.784797 -5.15039,52.423828 -0.49103,0.728922 -0.85692,1.487745 -1.19336,1.966797 -2.18439,3.11035 -4.71568,6.006654 -7.2539,8.927734 -3.03239,3.48979 -6.90037,7.23352 -10.31641,11.25 -4.3414,-9.83416 -3.7139,-21.274348 -3.60156,-31.628906 1e-5,-6.37e-4 -1e-5,-0.0013 0,-0.002 0.12514,-9.832256 4.40942,-17.959443 6.81445,-24.648437 l 0.004,-0.01367 c 4.1e-4,-0.0012 0.003,-0.0066 0.004,-0.0078 0.82385,-2.397914 4.47108,-9.883149 7.49414,-15.490234 0.0807,-0.05517 0.17771,-0.110294 0.24219,-0.167969 0.22613,-0.202273 0.42124,-0.434569 0.64649,-0.726562 0.4505,-0.583986 0.9881,-1.396135 1.60742,-2.398438 1.23864,-2.004605 2.78743,-4.758547 4.35351,-7.726562 3.03643,-5.754594 6.03999,-12.080668 7.03711,-15.574219 0.46388,-0.235934 0.97678,-0.606522 1.48633,-0.890625 z m 31.97656,0.382813 c -7.86942,10.98435 -12.8265,25.806708 -10.51953,39.324218 -0.8984,1.079464 -1.82737,2.15416 -2.72851,3.28125 -3.15227,3.942691 -6.26238,7.950321 -9.25782,12.052735 -0.89199,-5.1254 0.0882,-13.080341 1.95704,-20.984375 2.11813,-8.9583 5.12944,-17.704307 6.83984,-21.933594 1.97315,-4.124571 4.58211,-7.770823 7.36914,-11.513672 l 0.0293,0.603516 1.02148,-0.07617 c 1.65215,-0.122096 3.50337,-0.383639 5.28906,-0.753906 z m 6.16211,0.496093 c -4.0101,8.140274 -10.60859,17.353059 -8.02539,28.316406 -2.62842,2.538025 -4.7493,5.433747 -6.88476,8.226563 -1.40355,-12.107808 3.12062,-25.239607 10.125,-35.261719 l 0.01,0.152344 1.13281,-0.248047 c 1.26643,-0.275913 2.4226,-0.75953 3.64258,-1.185547 z m 4.98047,0.91211 c -1.49134,2.321154 -3.05833,4.774784 -4.1582,7.441406 -1.29669,3.143785 -1.84357,6.582957 -0.68555,10.076172 -2.18622,2.905666 -3.85284,6.058294 -6.20898,8.357422 -0.0249,0.02429 -0.12407,0.08509 -0.15625,0.109375 -1.67266,-9.228098 3.66614,-17.296013 7.60937,-25.150391 l 0.45117,-0.08789 c 1.21187,-0.234697 2.17314,-0.535215 3.14844,-0.746093 z m -63.85547,0.324218 c 0.0376,0.202679 0.15859,0.390229 0.24414,0.595703 -1.13391,2.464174 -1.7711,5.059314 -2.65625,7.279297 -0.79546,1.995048 -1.9144,3.560454 -3.6582,4.748047 -1.35778,-2.464995 -2.08971,-4.273007 -2.12109,-5.873047 -0.0225,-1.147802 0.3507,-2.466 0.91015,-3.970703 l 0.3418,0.408203 0.76562,-0.630859 c 0.47847,-0.395192 0.62498,-0.647716 0.94922,-1.013672 0.10497,0.375389 0.0633,0.827005 0.23047,1.158203 l 0.63477,1.257813 0.97851,-1.015625 c 0.89078,-0.924532 2.16794,-1.965105 3.38086,-2.94336 z m 76.31836,1.34961 c -0.33046,0.334221 -0.70297,0.572824 -0.98633,0.988281 -1.06743,1.565143 -1.34462,3.359926 -1.82617,4.705078 l -0.44531,1.244141 1.29492,0.08789 c -0.45125,0.993157 -0.78475,1.89472 -1.08594,2.708985 l -0.49609,1.339843 0.92773,0.0059 c -1.67932,1.26108 -3.17655,2.27539 -4.59179,2.857422 -1.79783,0.73937 -4.00356,0.992827 -6.91211,1.066406 4.35711,-5.682876 9.36986,-10.910097 14.12109,-15.003906 z m -88.43945,1.199218 c 0.14142,0.434528 0.35563,0.868827 0.79687,1.173829 l 0.67383,0.464843 0.58985,-0.568359 c 0.33987,-0.328247 0.4222,-0.540622 0.61523,-0.826172 -0.47549,1.402727 -0.77148,2.701732 -0.74609,3.996094 0.045,2.292884 1.00688,4.532812 2.77929,7.597656 0.16041,3.846047 -0.7355,8.941105 -0.84375,13.859375 -0.10366,4.709791 0.65587,9.354169 4.0293,12.494141 -2.18386,5.909958 -5.82415,13.455111 -6.48828,22.580078 -9.03079,-8.881684 -7.89353,-21.058204 -8.76367,-30.933594 2.1324,-9.874671 4.95196,-18.154073 5.36523,-27.914062 0.73398,-0.716795 1.3501,-1.279536 1.99219,-1.923829 z m 13.57226,0.550782 c -0.99816,7.569132 -0.30436,13.165612 2.10743,21.386718 -2.72196,5.046593 -5.59047,10.922039 -6.92774,14.248047 -2.33127,-2.576507 -2.98113,-6.244389 -2.88867,-10.445312 0.10014,-4.549802 0.93298,-9.431852 0.82422,-13.576172 2.52278,-1.486963 3.93666,-3.734458 4.87891,-6.097656 0.74326,-1.864139 1.33913,-3.708741 2.00585,-5.515625 z m -17.6289,1.162109 c 0.0198,0.02566 0.0509,0.04293 0.0723,0.06836 -0.35632,8.625448 -2.69232,16.31697 -4.74804,25.195313 -2.10912,-3.833934 -3.84708,-6.872929 -4.66211,-9.644531 -0.7771,-2.6426 -0.61606,-5.625066 0.23242,-9.384766 0.0375,0.01725 0.0505,0.05934 0.0898,0.07422 l 0.65625,0.248047 0.45703,-0.533203 c 0.63004,-0.735923 1.34204,-1.86995 2.03711,-2.917969 0.13217,0.213738 0.14656,0.529748 0.32618,0.708984 l 0.67187,0.669922 0.70508,-0.634766 c 1.12528,-1.013675 2.79418,-2.353349 4.16211,-3.849609 z m -11.19336,6.587891 c -0.72276,3.670016 -0.87674,6.826798 -0.0625,9.595703 1.08443,3.687706 3.27043,7.10707 5.9668,12.130859 0.87092,9.934724 -0.54194,23.721633 10.50781,33.337891 -0.12729,10.289346 -0.79003,22.022113 3.91797,32.382813 -0.50209,-0.0955 -1.18763,-0.33218 -1.9043,-0.69922 -1.50231,-0.76941 -3.08383,-2.08962 -3.54492,-2.89844 -0.0557,-0.0976 -0.18595,-0.15551 -0.27149,-0.24609 l 0.0293,-0.0371 c -4.87071,-3.91581 -10.05234,-10.53971 -12.70898,-16.710938 -3.23063,-7.491866 -5.20202,-15.577013 -6.75196,-23.68164 -3.6e-4,-0.0019 3.7e-4,-0.004 0,-0.0059 -1.17222,-6.131103 -1.8936,-12.379045 -1.86914,-18.59375 0.0111,-2.836786 0.37567,-5.698504 0.92578,-8.519531 0.55716,-2.85704 1.15174,-7.151541 1.60743,-10.753906 0.17941,-1.41834 0.31153,-2.55744 0.43554,-3.625 0.0707,0.06396 0.0852,0.144368 0.16407,0.205078 l 0.54296,0.417969 0.58594,-0.355469 c 0.93157,-0.566329 1.7001,-1.244174 2.42969,-1.943359 z m -5.88281,2.892578 c -0.0887,0.738322 -0.15297,1.313935 -0.25977,2.158203 -0.45328,3.58332 -1.04997,7.872688 -1.58594,10.621094 -0.37349,1.915297 -0.47436,3.894226 -0.63476,5.859375 -1.67661,-2.586593 -3.13288,-5.167336 -3.94922,-8.0625 l 0.20117,0.158203 0.25586,-1.691406 c 0.198,-1.307793 0.30913,-2.444835 0.54102,-3.494141 0.0739,0.06386 0.0976,0.151635 0.17968,0.210937 l 1.38868,1.003907 0.1914,-1.701172 c 0.0533,-0.473415 0.37493,-1.214975 0.61328,-1.91211 0.10334,0.06992 0.10966,0.18153 0.23047,0.240235 l 0.8711,0.421875 0.45117,-0.855469 c 0.47089,-0.892038 0.98045,-1.939864 1.50586,-2.957031 z m 108.50976,0.01367 c -0.43793,1.324948 -0.80971,2.634806 -1.13281,3.796875 l 0.56641,-0.650391 0.25586,1.359375 c -0.94407,0.72149 -1.69293,1.417292 -3.16797,2.185547 -2.3006,1.198233 -5.05274,2.361947 -7.70899,3.298828 -2.65625,0.936882 -5.22588,1.647 -7.11914,1.953125 -0.78536,0.126988 -1.3511,0.137767 -1.82617,0.125 2.09423,-2.387909 3.70919,-5.050718 5.47266,-7.408203 4.04533,0.0198 6.79897,-0.261652 9.27343,-1.279297 1.74805,-0.718897 3.47623,-1.91985 5.38672,-3.380859 z m 0.50781,6.667968 c -0.29138,1.150884 -0.6677,2.338804 -0.86914,3.449219 l -0.16406,0.90625 c -4.14304,3.000062 -9.07368,6.508116 -14.56055,9.576172 -5.97812,3.342752 -12.24416,5.794975 -17.75781,6.101563 0.49657,-0.590923 0.98279,-1.177916 1.48242,-1.78125 2.99258,-3.613671 5.45259,-7.553464 8.68946,-10.552735 0.13987,-0.129609 0.53804,-0.410294 0.83789,-0.591797 0.008,0.0043 0.0132,0.01739 0.0215,0.02148 0.35391,0.174494 0.71571,0.248109 1.10352,0.287109 0.77561,0.078 1.67626,0.0029 2.7207,-0.166016 2.08888,-0.337755 4.73007,-1.077701 7.4668,-2.042968 2.73673,-0.965268 5.55773,-2.155431 7.96679,-3.410157 1.13646,-0.591904 2.15763,-1.189437 3.0625,-1.796875 z m -117.52343,3.708985 c 1.09434,4.254187 3.03249,7.914705 5.71289,11.580078 -0.001,5.797576 0.65793,11.583284 1.67773,17.267578 -0.57139,-0.331893 -1.18941,-0.696165 -2.00781,-1.326172 -2.13463,-1.643239 -4.71994,-4.094294 -6.14258,-6.18164 l -0.0117,-0.01758 -0.0117,-0.01563 c -2.86721,-3.850569 -4.3287,-7.79985 -5.46875,-12.144531 l 0.42188,0.503906 0.1543,-2.505859 c 0.0612,-0.992738 0.0525,-1.753791 0.1582,-2.478516 0.28456,0.06328 0.56442,0.145896 0.92383,0.06641 l 0.70898,-0.15625 0.0703,-0.722657 c 0.0595,-0.612178 0.29577,-1.126785 0.45899,-1.726562 0.23128,0.317111 0.3636,0.712589 0.65625,0.976562 l 1.17578,1.060547 0.45312,-1.519531 c 0.26492,-0.891478 0.70858,-1.747026 1.07032,-2.660156 z m 117.7539,2.201172 c -0.29631,0.811186 -0.58187,1.630844 -0.75,2.521484 l -0.29101,1.546875 1.52344,-0.392578 c 0.19624,-0.05045 0.29283,-0.05317 0.4707,-0.101563 -0.19256,0.596716 -0.34692,1.236452 -0.58594,1.822266 -3.78686,2.722278 -5.87355,4.823174 -7.40625,6.830078 -1.54897,2.028211 -2.60294,3.932444 -4.56445,6.408203 -8.19688,5.669583 -23.22236,12.769671 -34.95703,12.47461 0.32162,-0.516393 0.66801,-1.06617 0.99609,-1.529297 3.23756,-4.570129 6.74983,-8.961005 10.26758,-13.361328 6.53426,0.20641 13.7303,-2.696153 20.44922,-6.453125 5.65463,-3.161867 10.67781,-6.743333 14.84765,-9.765625 z m -126.25781,6.201172 c 1.20507,5.071584 2.80201,9.640654 6.10742,14.083984 1.63925,2.397595 4.29726,4.876858 6.56055,6.619141 1.13467,0.873467 2.14932,1.552364 2.9707,1.947265 0.2223,0.106874 0.47124,0.122353 0.68946,0.1875 1.40585,7.18922 3.25851,14.365006 5.99609,21.208985 -0.20156,-0.11226 -0.28913,-0.133325 -0.51953,-0.273438 -1.5353,-0.933641 -3.67491,-2.457057 -5.91602,-4.296875 -4.48222,-3.679636 -9.38154,-8.717671 -10.97851,-12.654297 l 0.0176,0.04883 c -2.58127,-7.476632 -5.5138,-13.107373 -9.21094,-19.568359 0.22574,0.02814 0.3905,0.149268 0.64258,0.126953 l 0.94531,-0.08203 -0.0332,-0.947266 c -0.0356,-1.028867 -0.055,-1.987847 0.002,-2.984375 0.18334,0.09002 0.34085,0.203933 0.62305,0.207031 l 0.76367,0.0078 0.20898,-0.734375 c 0.25049,-0.877494 0.70348,-1.84152 1.13086,-2.896484 z m 128.76172,0.404296 c -0.42032,1.398115 -0.83184,2.821711 -1.3125,4.035157 l -0.38086,0.958984 0.9707,0.349609 c 0.39544,0.14286 0.77886,0.144199 1.16407,0.167969 -0.2388,0.491544 -0.60323,1.085041 -0.79883,1.519531 l -0.49024,1.085938 1.1543,0.294922 c 0.0661,0.01681 0.10506,-0.01496 0.16992,-0.002 -1.42067,1.372928 -2.89781,2.406985 -4.61523,2.912109 -2.03889,0.599671 -4.53444,0.648263 -7.37891,0.511719 1.30371,-1.808013 2.44602,-3.535537 3.56445,-5 1.45672,-1.90741 3.34622,-3.849176 7.17774,-6.576172 0.27494,-0.06339 0.51208,-0.173035 0.77539,-0.257813 z m -134.16797,9.728516 0.73047,0.617188 c 2.66295,4.803342 4.96729,9.532371 6.9668,14.974609 -3.1452,-0.821181 -5.85279,-2.439658 -8.4668,-4.378906 l 0.4375,-0.0059 -0.51367,-1.33789 c -0.46364,-1.205351 -1.03097,-2.562837 -1.61328,-3.910157 0.33171,0.02162 0.69492,0.134651 1.00976,0.132813 l 0.44141,-1.892578 c -0.0439,-0.02197 -0.29221,-0.251522 -0.53516,-0.6875 -0.021,-0.03765 -0.0433,-0.104521 -0.0644,-0.144531 0.57721,0.01042 1.1781,-0.05977 1.77344,-0.376954 l 0.8457,-0.451171 -0.41602,-0.865235 c -0.19396,-0.403831 -0.3969,-1.118635 -0.5957,-1.673828 z m 135.35547,0.771484 c -0.17477,0.913791 -0.32619,1.822197 -0.41211,2.548829 l -0.14258,1.208984 0.56446,-0.04492 c -4.26411,3.255035 -8.26603,6.316062 -12.93946,9.759766 -6.62208,4.842437 -12.97882,9.474367 -20.84961,13.703125 -9.38851,4.328729 -20.18343,8.899986 -31.29297,6.25 0.17955,-0.337123 0.4163,-0.782677 0.60352,-1.007813 6.03968,-7.263075 8.87859,-10.870902 12.86523,-16.423828 12.74943,0.916815 28.46937,-6.662281 37.26563,-12.710937 3.64763,0.267443 6.78063,0.2812 9.57617,-0.541016 1.73702,-0.510887 3.2912,-1.493237 4.76172,-2.742188 z m 1.54297,5.0625 c -0.29207,0.705486 -0.59907,1.433491 -0.80664,2.039063 l -0.2168,0.630859 0.5,0.441407 c 0.54448,0.481857 1.1112,0.656054 1.60742,0.736328 -0.25094,0.920761 -0.54009,1.816721 -0.9375,2.71289 -3.35764,1.143076 -7.07028,1.663662 -10.99414,1.621094 3.71432,-2.755859 7.25904,-5.440479 10.84766,-8.181641 z m -139.72461,6.330079 c 3.44404,2.693042 7.03941,4.896438 11.55469,5.755859 2.03123,4.526009 6.84459,9.315647 11.29687,12.970703 2.30413,1.891552 4.4924,3.453103 6.14649,4.458984 0.82704,0.502941 1.50502,0.866314 2.08398,1.078125 0.1529,0.05594 0.33655,0.05842 0.49414,0.0918 2.6087,5.723816 6.98154,11.431506 11.49805,15.462896 -0.22608,0.10932 -0.60018,0.28614 -0.52149,0.28906 -4.21277,-0.15606 -8.36477,-2.36294 -12.3457,-4.54883 -2.87393,-1.57805 -5.44285,-3.83493 -7.99219,-6.13086 l -0.0195,-0.0195 -0.0215,-0.0156 c -8.03153,-6.476136 -14.92745,-18.074973 -23.14063,-24.353512 0.31365,-0.09907 0.60953,-0.197293 1.13086,-0.1875 l 1.2793,0.02344 -0.28516,-1.248047 c -0.29167,-1.273551 -0.76375,-2.438738 -1.1582,-3.626953 z m 140.35742,2.171875 c -0.28294,0.575926 -0.44643,1.220923 -0.81641,1.75 l -0.91601,1.308593 1.57812,0.251953 c 0.50969,0.08141 0.79405,-0.04438 1.20899,-0.05469 -0.76847,1.535884 -1.52447,3.092064 -1.9668,5.099609 l -0.18359,0.837891 0.80078,0.308594 c 0.0516,0.01987 0.10829,0.03295 0.16016,0.05273 -10.64319,4.158886 -20.45785,6.787857 -32.61524,4.447266 6.81392,-3.873619 12.69005,-8.000757 18.53906,-12.277344 4.62381,0.436799 8.85476,-0.237672 12.77149,-1.386719 l -0.0137,0.03125 z m -140.33398,6.390625 c 6.36543,5.860261 12.47032,14.822623 19.53906,21.070314 -2.48574,0.43862 -5.118,-0.2176 -7.86328,-1.55274 -2.73021,-1.327807 -5.4584,-3.221861 -8.08789,-5.017574 0.0503,-0.004 0.0688,-0.03033 0.12109,-0.0332 l 2.46289,-0.134765 -1.86133,-1.617188 c -0.99441,-0.864483 -1.8413,-1.74336 -2.9707,-3.951172 0.3452,-0.07835 0.60855,-0.06823 0.99609,-0.257812 l 1.13868,-0.556641 -0.8086,-0.978515 c -0.70925,-0.85847 -1.46146,-1.973357 -2.20703,-3.082032 0.0686,-0.02184 0.10346,0.0016 0.17383,-0.02539 l 0.94922,-0.365235 -0.37891,-0.943359 c -0.30132,-0.748965 -0.84107,-1.742486 -1.20312,-2.554687 z m 141.62695,4.759765 c -0.54504,0.987256 -1.11476,2.104413 -1.66602,3.064453 -4.33895,3.049711 -7.86887,5.807501 -11.88867,9.132813 -3.12397,2.208155 -7.41631,4.988403 -11.21679,7.322263 -1.90025,1.16693 -3.67936,2.22214 -5.125,3.03907 -1.44565,0.81692 -2.60191,1.40653 -3.06446,1.58203 -5.68295,2.15615 -6.94146,3.14022 -10.52734,3.71289 -6.2296,0.9949 -12.33291,2.42627 -18.16211,4.63086 -2.29723,0.83574 -7.6785,1.39925 -12.9043,1.2832 -4.72016,-0.10482 -9.14363,-0.88672 -11.44922,-1.97656 0.35719,-0.5945 0.67427,-1.15394 1.37696,-2.125 1.00711,-1.39177 2.2546,-3.02415 3.46093,-4.58399 1.20634,-1.55984 2.37165,-3.04718 3.22461,-4.16797 0.42649,-0.56039 0.77349,-1.02652 1.01953,-1.38086 0.12303,-0.17716 0.21913,-0.32012 0.30274,-0.46875 0.026,-0.0462 0.0534,-0.11457 0.0801,-0.17382 2.3413,-2.69377 4.69008,-5.439169 6.81445,-8.388676 12.04176,3.193729 23.49776,-1.711847 33.05859,-6.115234 13.96265,3.294797 24.96698,0.232854 36.66602,-4.386719 z m 0.78711,4.613281 c -0.71888,1.945039 -1.47847,3.948098 -2.61328,5.69336 l -0.87305,1.341797 1.58789,0.195312 c 0.0393,0.0049 0.0437,-0.01531 0.082,-0.01172 -1.00172,1.6574 -2.17361,3.264718 -3.44726,4.582028 l -1.85157,1.91407 2.6543,-0.22266 c 0.70268,-0.059 1.18071,-0.26762 1.78906,-0.39062 -0.91401,1.47583 -1.85566,2.86187 -2.96289,3.86718 -4.40971,2.83627 -7.86799,6.36641 -12.13086,8.29688 -1.5506,0.32054 -5.09848,0.17304 -8.25781,-0.69922 -1.59817,-0.44124 -3.11037,-1.05836 -4.2539,-1.81445 -0.84762,-0.56044 -1.38839,-1.19616 -1.76563,-1.86329 0.67836,-0.32405 1.30741,-0.61554 2.34375,-1.20117 1.47666,-0.83444 3.27167,-1.89967 5.1875,-3.07617 3.83167,-2.35301 8.14159,-5.14492 11.32422,-7.394531 l 0.0312,-0.02148 0.0293,-0.02539 c 4.02563,-3.331672 7.51508,-6.05407 11.83203,-9.08789 0.42156,0.01519 0.86261,-0.0525 1.29492,-0.08203 z m -137.0625,8.738282 c 0.34925,0.231302 0.71375,0.417341 1.06836,0.644531 l -0.82813,-0.425781 c -0.0581,-0.0298 -0.17875,-0.180111 -0.24023,-0.21875 z m 1.32031,0.791015 c 1.35368,0.859191 2.71663,1.725261 4.12891,2.412111 3.37877,1.64323 6.97836,2.50728 10.44922,1.37891 1.99964,1.79618 4.13256,3.5307 6.45507,5.02734 -3.85999,1.98171 -6.53452,3.06414 -8.87109,3.20117 -2.67113,0.15666 -5.43155,-0.66293 -10.24023,-2.19922 -0.48224,-0.64348 -1.14242,-1.93462 -1.83399,-3.59375 -0.57773,-1.38604 -1.20764,-3.07441 -1.84179,-4.75 0.33218,-0.0787 0.71936,-0.18414 1,-0.53515 z m 130.8711,9.357421 c 0.46817,0.26846 0.93577,0.5535 1.39453,0.70703 -1.02144,0.98963 -2.16301,2.24477 -2.75196,3.74024 l -0.34179,0.86914 0.84375,0.40039 c 0.10982,0.0521 0.13205,0.022 0.23437,0.0664 -0.31295,0.21027 -0.45262,0.38243 -0.8164,0.59766 l -2.66602,1.57813 3.08594,0.27734 c 0.0393,0.004 0.0584,0.0342 0.0957,0.0391 -0.0355,0.0175 -0.0272,0.0296 -0.0645,0.0469 -0.60931,0.28217 -1.37032,0.52913 -2.05469,0.83203 l -0.75781,0.33594 0.18945,0.80859 c 0.1656,0.70249 0.66176,1.03102 1.13672,1.26367 -0.38989,0.33581 -0.68648,0.71193 -0.99219,1.09961 -2.83609,-1.38753 -5.37994,-2.9426 -7.42383,-5.10937 3.99824,-2.10761 7.23701,-5.13945 10.88868,-7.55274 z m -107.84961,0.72461 c 3.86847,2.12136 8.09707,4.38579 12.76171,4.55859 1.04742,0.0388 1.5995,-0.53932 2.03125,-0.79687 0.0716,-0.0427 0.0535,-0.0315 0.10938,-0.0586 0.92405,1.32509 2.42882,2.47923 4.02148,3.29492 0.73294,0.37537 1.44853,0.60334 2.15039,0.77148 -0.3736,0.5379 -0.72616,1.00589 -0.90429,1.27149 l -0.0488,-0.0215 -0.25781,0.41406 c -0.37037,0.13909 -3.93047,1.48556 -5.6836,1.75586 -3.86759,0.59637 -7.89523,0.40766 -11.9082,0.082 -4.32428,-0.35089 -8.66553,-0.65729 -12.53125,-2.12696 -2.47157,-0.93966 -4.7969,-2.44581 -6.80664,-4.24219 -0.78405,-0.70083 -1.46298,-1.58323 -2.13867,-2.52539 3.30411,1.01007 5.95795,1.70344 8.46094,1.55664 3.03066,-0.17774 6.0852,-1.4615 10.74414,-3.93359 z m 78.89843,2.10352 c 0.56987,1.06667 1.37588,2.00122 2.44336,2.70703 1.39601,0.92303 3.08206,1.59127 4.82422,2.07226 3.21875,0.88868 6.45057,1.09198 8.66602,0.74805 2.58439,3.0573 5.9657,4.84117 9.35937,6.47461 l 0.004,-0.008 c 0.2071,0.16175 0.44714,0.30221 0.70117,0.43359 -1.14892,1.0497 -2.40418,1.94054 -3.95117,2.4707 l -0.89844,0.3086 0.0918,0.32226 c -4.58559,-1.00732 -8.86869,-0.20348 -13.34375,-0.8125 -5.17199,-1.91074 -12.70288,-4.69578 -16.66797,-11.59765 2.63527,-0.60408 4.73527,-1.54059 8.77148,-3.11914 z m -10.78711,3.63086 c 4.28206,7.96543 12.64402,10.98934 17.90821,12.93164 1.94565,1.91513 3.62686,3.84913 5.6289,5.27343 1.12435,0.79989 2.41144,1.34963 3.82618,1.67578 -0.73983,0.31199 -1.48075,0.62772 -2.39258,0.84571 l -1.71485,0.41015 0.39063,0.40039 c -7.66803,-0.58869 -14.46407,-1.15148 -20.45899,-3.18164 -6.6835,-2.26333 -12.717,-6.4082 -18.9414,-14.38281 5.05865,-1.79637 10.33087,-3.07756 15.7539,-3.97265 z m -44.74023,2.2539 -0.875,2.04297 -0.44336,-0.18945 c 0.38228,-0.56217 0.75177,-1.07923 1.31836,-1.85352 z m 1.25586,2.14453 c 0.85148,1.10058 1.77731,2.00314 2.66406,2.81055 5.323,4.84682 11.27792,9.03163 17.55664,12.49023 0.003,0.002 0.006,0.004 0.01,0.006 8.56174,5.02042 16.55937,6.13882 25.03125,7.86328 1.75511,0.40553 3.2361,0.92829 4.69726,1.51368 -0.55712,-0.019 -1.0633,-0.11512 -1.69726,-0.004 l -2.88672,0.50586 2.59375,1.36328 c 0.0826,0.0434 0.0592,0.0481 0.13281,0.0879 -2.23915,-0.19802 -4.57397,-0.64638 -7.06055,-1.50586 l -0.97851,-0.33789 -0.30274,0.98828 c -0.15088,0.49015 -0.21474,0.93984 -0.15039,1.37696 0.002,0.0125 0.0135,0.0188 0.0156,0.0312 -0.33239,-0.0166 -0.74071,-0.0115 -0.92578,-0.0488 -3.3749,-0.67998 -6.59971,-2.39974 -9.95117,-3.94336 -3.90851,-1.80017 -7.73371,-3.79847 -11.40039,-6.03906 -3.56511,-2.17852 -7.02735,-4.5341 -10.25391,-7.16016 -1.59733,-1.30004 -3.13264,-2.64538 -4.41406,-4.16211 -1.09301,-1.29369 -2.70294,-3.99235 -3.07618,-4.61133 l 0.31641,-0.45117 -0.21289,-0.0898 z m 25.60547,0.14844 c 6.60359,8.68294 13.19615,13.25551 20.42383,15.70313 6.40692,2.16967 13.44296,2.71916 21.29296,3.31445 -0.79659,0.36128 -1.65143,0.7 -2.78906,0.92969 -5.8951,-1.37256 -12.66728,-0.24699 -19.02344,1.08203 -8.49013,-1.72244 -16.12725,-2.81538 -24.29101,-7.60938 l -0.0117,-0.008 -0.0117,-0.006 c -6.15331,-3.38859 -11.98527,-7.48758 -17.18555,-12.22266 -0.44221,-0.40264 -0.81281,-0.74814 -1.20117,-1.10546 2.80275,0.75739 6.29127,1.10344 9.90039,1.18359 5.04901,0.11212 9.89468,-0.33921 12.89649,-1.26172 z m -29.33985,1.24219 0.58594,0.25 c -0.75307,1.0746 -3.29587,4.71793 -5.00976,6.95312 -3.18514,4.15393 -6.52942,8.19329 -9.9336,12.18555 v 0.002 h -0.002 c -2.37437,2.80569 -5.5029,6.13166 -8.16406,9.00977 -2.40618,2.60232 -4.74461,5.36739 -7.79493,8.30469 -0.11762,-0.0653 -0.38836,-0.14728 -0.7539,-0.4375 -0.0558,-0.0443 -0.0472,-0.0475 -0.0996,-0.0918 0.90315,-0.82969 5.56067,-5.09677 8.24219,-7.86328 3.3806,-3.48776 6.5394,-7.16321 9.6875,-10.8125 2.79612,-3.24128 5.68043,-6.46607 8.27539,-9.9668 1.83505,-2.47559 4.45383,-6.70834 4.96679,-7.5332 z m 68.28516,7.36328 c 3.60416,0.14818 6.976,0.004 10.20703,0.61914 -0.0185,0.002 -0.0302,0.0159 -0.0488,0.0176 l -1.17773,0.10742 0.30078,1.14258 c 0.0995,0.37931 0.26372,0.76306 0.47266,1.12109 -0.51212,0.34211 -0.94908,0.68594 -1.83008,0.99219 l -1.44922,0.50391 0.29102,0.3125 c -1.13352,-0.2538 -2.15743,-0.69923 -3.13477,-1.39454 -1.15993,-0.8252 -2.40755,-2.17979 -3.63086,-3.42187 z m -4.47266,12.73437 c 0.2611,0.0118 0.49064,0.0844 0.74805,0.10352 l 1.87109,1.75195 c 0.0778,0.0728 0.0523,0.10045 0.1211,0.17969 -0.62734,0.0451 -0.78977,0.078 -1.78711,0.10547 -1.93143,0.0532 -4.28062,-0.0101 -5.71289,-0.35742 l -2.06055,-0.5 0.86524,1.78711 c -1.39777,-0.78197 -2.90162,-1.49479 -4.39063,-2.03516 3.54311,-0.62549 7.09059,-1.18187 10.3457,-1.03516 z" />
  <rect fill="#000000" width="400" height="2" x="10" y="243" />
  <rect fill="#000000" width="400" height="2" x="10" y="195" />
  <path fill="#000000" d="m 130.24786,210.33789 c -0.45806,0 -0.85571,0.16973 -1.19045,0.50781 -0.31713,0.33808 -0.47502,0.73854 -0.47502,1.20118 0,0.46263 0.15789,0.86309 0.47502,1.20117 0.33474,0.32029 0.73239,0.48047 1.19045,0.48047 0.45808,0 0.85376,-0.16018 1.18851,-0.48047 0.33475,-0.33808 0.50238,-0.73854 0.50238,-1.20117 0,-0.46264 -0.16763,-0.8631 -0.50238,-1.20118 -0.33475,-0.33808 -0.73043,-0.50781 -1.18851,-0.50781 z m 72.11371,0 c -1.63849,0 -3.02047,0.471 -4.14803,1.41406 -1.10995,0.92527 -1.66548,2.22585 -1.66548,3.89844 0,1.24555 0.31773,2.22381 0.95198,2.93555 0.65187,0.69395 1.51536,1.2546 2.59008,1.68164 l 2.61549,1.04101 c 0.84568,0.33808 1.59417,0.71184 2.24604,1.1211 0.6695,0.39146 1.00476,1.06649 1.00476,2.02734 0,1.03203 -0.3879,1.77 -1.16309,2.21485 -0.75759,0.42704 -1.59379,0.64062 -2.50994,0.64062 -1.26851,0 -2.23725,-0.34707 -2.90675,-1.04102 -0.6695,-0.71174 -1.07494,-1.68044 -1.21588,-2.9082 l -2.16784,0.48047 c 0,1.83274 0.5984,3.26484 1.79644,4.29687 1.19804,1.01423 2.72231,1.52149 4.57222,1.52149 1.70897,0 3.15528,-0.45386 4.3357,-1.36133 1.18042,-0.92526 1.76907,-2.26773 1.76907,-4.0293 0,-1.40569 -0.3684,-2.45644 -1.10835,-3.15039 -0.73998,-0.69395 -1.66584,-1.26414 -2.77579,-1.70898 l -2.74841,-1.09375 c -0.65188,-0.24911 -1.28537,-0.56948 -1.90201,-0.96094 -0.59901,-0.40925 -0.89919,-1.05759 -0.89919,-1.94726 0,-0.90748 0.33526,-1.58446 1.00475,-2.0293 0.66949,-0.46263 1.42577,-0.69336 2.27145,-0.69336 0.93377,0 1.69201,0.28412 2.27341,0.85352 0.59902,0.56939 0.95962,1.45995 1.08295,2.66992 l 2.16785,-0.48047 c 0,-1.70818 -0.5029,-3.03546 -1.50713,-3.97852 -1.00425,-0.94306 -2.32581,-1.41406 -3.9643,-1.41406 z m 89.89241,0 c -0.45807,0 -0.85376,0.16973 -1.18851,0.50781 -0.31712,0.33808 -0.47696,0.73854 -0.47696,1.20118 0,0.46263 0.15984,0.86309 0.47696,1.20117 0.33475,0.32029 0.73044,0.48047 1.18851,0.48047 0.45807,0 0.85571,-0.16018 1.19046,-0.48047 0.33475,-0.33808 0.50043,-0.73854 0.50043,-1.20117 0,-0.46264 -0.16568,-0.8631 -0.50043,-1.20118 -0.33475,-0.33808 -0.73239,-0.50781 -1.19046,-0.50781 z m -281.916089,0.16016 v 19.0039 h 6.130183 c 1.920388,0 3.384237,-0.48055 4.388476,-1.4414 1.021859,-0.97865 1.532545,-2.27728 1.532545,-3.89649 0,-2.08184 -0.810864,-3.55975 -2.431743,-4.43164 1.268514,-0.87188 1.901998,-2.17811 1.901998,-3.92187 0,-1.60143 -0.510686,-2.8829 -1.532545,-3.84375 -1.004239,-0.97865 -2.466132,-1.46875 -4.386521,-1.46875 z m 41.505796,0 v 19.0039 h 2.377009 v -8.27343 c 0.158565,-1.29894 0.538661,-2.14566 1.13768,-2.53711 0.616639,-0.39146 1.21504,-0.58594 1.796441,-0.58594 0.581403,0 1.16226,0.22117 1.743662,0.66601 0.59902,0.42705 0.899198,1.38816 0.899198,2.88282 v 7.84765 h 2.378964 v -8.08789 c 0,-1.04982 -0.142295,-1.93083 -0.424187,-2.64258 -0.281891,-0.71174 -0.650283,-1.27998 -1.108359,-1.70703 -0.440455,-0.44483 -0.943349,-0.76521 -1.507133,-0.96093 -0.563784,-0.19573 -1.127099,-0.29297 -1.690882,-0.29297 -1.233277,0 -2.309235,0.41761 -3.225384,1.2539 v -6.5664 z m 58.387253,0 v 2.18945 h 2.77383 v 14.625 h -2.77383 v 2.18945 h 7.92663 v -2.18945 h -2.77384 v -16.81445 z m 61.54032,0 v 6.72656 c -0.98662,-0.94305 -2.17563,-1.41406 -3.56748,-1.41406 -0.6871,0 -1.37322,0.12394 -2.06033,0.37304 -0.66948,0.23132 -1.28739,0.62223 -1.85117,1.17383 -0.54617,0.5516 -0.99447,1.27244 -1.34684,2.16211 -0.33476,0.87189 -0.50239,1.93978 -0.50239,3.20313 0,1.28113 0.16763,2.36617 0.50239,3.25586 0.35237,0.87188 0.80067,1.58316 1.34684,2.13476 0.56378,0.53381 1.18169,0.92667 1.85117,1.17578 0.68711,0.24911 1.37323,0.37305 2.06033,0.37305 1.42708,0 2.63363,-0.49771 3.62025,-1.49414 l 0.0802,1.33398 h 2.24604 v -19.0039 z m 64.69337,0 v 2.18945 h 2.77578 v 14.625 h -2.77578 v 2.18945 h 7.92857 v -2.18945 h -2.77578 v -16.81445 z m 144.19417,0 -6.18296,19.0039 h 2.50994 l 1.55991,-4.85742 h 6.87104 l 1.55796,4.85742 h 2.51189 l -6.18491,-19.0039 z m 16.95183,0 v 19.0039 h 6.13019 c 1.92038,0 3.38424,-0.48055 4.38848,-1.4414 1.02185,-0.97865 1.53254,-2.27728 1.53254,-3.89649 0,-2.08184 -0.81086,-3.55975 -2.43174,-4.43164 1.26852,-0.87188 1.90199,-2.17811 1.90199,-3.92187 0,-1.60143 -0.51068,-2.8829 -1.53254,-3.84375 -1.00423,-0.97865 -2.46613,-1.46875 -4.38652,-1.46875 z m -123.97982,1.36133 v 4.11132 h -1.47976 v 2.1875 h 1.47976 v 7.23242 c 0,1.20996 0.26509,2.22447 0.79364,3.04297 0.54617,0.8185 1.48958,1.22852 2.82856,1.22852 0.84568,0 1.62926,-0.22313 2.3516,-0.66797 l -0.15833,-2.08203 c -0.89853,0.30249 -1.56906,0.45508 -2.00951,0.45508 -0.56379,0 -0.94193,-0.18688 -1.13573,-0.56055 -0.1938,-0.37366 -0.29126,-0.93431 -0.29126,-1.68164 v -6.9668 h 3.33094 v -2.1875 h -3.33094 v -4.11132 z m -260.861176,0.98828 h 2.984946 c 1.127567,0 2.008602,0.25742 2.642859,0.77343 0.651876,0.51602 0.979345,1.254 0.979345,2.21485 0,0.97864 -0.327469,1.70902 -0.979345,2.18945 -0.634257,0.48043 -1.515292,0.7207 -2.642859,0.7207 h -2.984946 z m 387.272746,0 h 2.98494 c 1.12758,0 2.00861,0.25742 2.64287,0.77343 0.65187,0.51602 0.97934,1.254 0.97934,2.21485 0,0.97864 -0.32747,1.70902 -0.97934,2.18945 -0.63426,0.48043 -1.51529,0.7207 -2.64287,0.7207 h -2.98494 z m -18.06214,1.12109 2.67022,8.32617 h -5.36586 z m -345.143382,1.8418 c -0.722348,0 -1.435752,0.12394 -2.140482,0.37304 -0.70473,0.24911 -1.340169,0.64957 -1.903953,1.20118 -0.546166,0.5338 -0.994478,1.24509 -1.346843,2.13476 -0.334746,0.87189 -0.502377,1.94934 -0.502377,3.23047 0,1.26334 0.167631,2.33883 0.502377,3.22852 0.352365,0.87188 0.800677,1.58316 1.346843,2.13476 0.563784,0.53381 1.199223,0.92667 1.903953,1.17578 0.70473,0.24911 1.418134,0.37305 2.140482,0.37305 0.722347,0 1.426003,-0.12394 2.113114,-0.37305 0.70473,-0.24911 1.330422,-0.64197 1.876587,-1.17578 0.563785,-0.5516 1.01405,-1.26288 1.348797,-2.13476 0.352364,-0.88969 0.52779,-1.96518 0.52779,-3.22852 0,-1.28113 -0.175426,-2.35858 -0.52779,-3.23047 -0.334747,-0.88967 -0.785012,-1.60096 -1.348797,-2.13476 -0.546165,-0.55161 -1.171857,-0.95207 -1.876587,-1.20118 -0.687111,-0.2491 -1.390767,-0.37304 -2.113114,-0.37304 z m 60.222792,0 c -1.303749,0 -2.387501,0.34707 -3.250795,1.04101 -0.863294,0.69395 -1.296018,1.6264 -1.296018,2.80078 0,1.121 0.370348,1.93147 1.110314,2.42969 0.757584,0.49822 1.560656,0.91584 2.406331,1.25391 1.233277,0.48043 2.112358,0.83704 2.640905,1.06836 0.546166,0.23131 0.821007,0.63937 0.821007,1.22656 0,0.64057 -0.257299,1.09442 -0.768227,1.36133 -0.493312,0.24911 -1.07417,0.375 -1.743663,0.375 -0.651875,0 -1.232732,-0.12589 -1.743662,-0.375 -0.510929,-0.24911 -0.924155,-0.68387 -1.241283,-1.30664 l -2.11507,0.56054 c 0.634257,2.27758 2.298866,3.41602 4.994457,3.41602 1.40946,0 2.608217,-0.32992 3.594834,-0.98828 1.00424,-0.67615 1.50518,-1.69066 1.50518,-3.04297 0,-1.13879 -0.35085,-1.98356 -1.05558,-2.53516 -0.68712,-0.5516 -1.507726,-1.00546 -2.459108,-1.36132 -1.198041,-0.44485 -2.086871,-0.78236 -2.668272,-1.01368 -0.563784,-0.23132 -0.846419,-0.60508 -0.846419,-1.12109 0,-0.46263 0.194923,-0.82685 0.582523,-1.09375 0.40522,-0.2669 0.915908,-0.40039 1.532546,-0.40039 1.074713,0 1.840744,0.5244 2.298819,1.57422 l 2.115061,-0.56055 c -0.2995,-1.12099 -0.83748,-1.94861 -1.612683,-2.48242 -0.757587,-0.5516 -1.691247,-0.82617 -2.801197,-0.82617 z m 51.52012,0 c -1.26851,0 -2.3698,0.44431 -3.30357,1.33398 l -0.0527,-1.17383 h -2.24605 v 13.53125 h 2.37701 v -8.27343 c 0.15857,-1.29894 0.53867,-2.14566 1.13769,-2.53711 0.61664,-0.39146 1.21504,-0.58594 1.79645,-0.58594 0.58139,0 1.16225,0.22117 1.74365,0.66601 0.59903,0.42705 0.8992,1.38816 0.8992,2.88282 v 7.84765 h 2.37896 v -8.08789 c 0,-1.04982 -0.1423,-1.93083 -0.42419,-2.64258 -0.28189,-0.71174 -0.65028,-1.27998 -1.10835,-1.70703 -0.44046,-0.44483 -0.94334,-0.76521 -1.50714,-0.96093 -0.56378,-0.19573 -1.12709,-0.29297 -1.69088,-0.29297 z m 74.18968,0 c -0.72234,0 -1.43576,0.12394 -2.14048,0.37304 -0.70473,0.24911 -1.34016,0.64957 -1.90395,1.20118 -0.54616,0.5338 -0.99448,1.24509 -1.34685,2.13476 -0.33474,0.87189 -0.50238,1.94934 -0.50238,3.23047 0,1.26334 0.16764,2.33883 0.50238,3.22852 0.35237,0.87188 0.80069,1.58316 1.34685,2.13476 0.56379,0.53381 1.19922,0.92667 1.90395,1.17578 0.70472,0.24911 1.41814,0.37305 2.14048,0.37305 0.72235,0 1.426,-0.12394 2.11311,-0.37305 0.70473,-0.24911 1.33043,-0.64197 1.87659,-1.17578 0.56379,-0.5516 1.01405,-1.26288 1.3488,-2.13476 0.35237,-0.88969 0.52779,-1.96518 0.52779,-3.22852 0,-1.28113 -0.17542,-2.35858 -0.52779,-3.23047 -0.33475,-0.88967 -0.78501,-1.60096 -1.3488,-2.13476 -0.54616,-0.55161 -1.17186,-0.95207 -1.87659,-1.20118 -0.68711,-0.2491 -1.39076,-0.37304 -2.11311,-0.37304 z m 87.10686,0 c -0.72236,0 -1.43576,0.12394 -2.14048,0.37304 -0.70474,0.24911 -1.33822,0.64957 -1.90201,1.20118 -0.54616,0.5338 -0.99642,1.24509 -1.34879,2.13476 -0.33476,0.87189 -0.50238,1.94934 -0.50238,3.23047 0,1.26334 0.16762,2.33883 0.50238,3.22852 0.35237,0.87188 0.80263,1.58316 1.34879,2.13476 0.56379,0.53381 1.19727,0.92667 1.90201,1.17578 0.70472,0.24911 1.41812,0.37305 2.14048,0.37305 0.72234,0 1.42795,-0.12394 2.11506,-0.37305 0.70474,-0.24911 1.33043,-0.64197 1.87659,-1.17578 0.56379,-0.5516 1.0121,-1.26288 1.34684,-2.13476 0.35237,-0.88969 0.5278,-1.96518 0.5278,-3.22852 0,-1.28113 -0.17543,-2.35858 -0.5278,-3.23047 -0.33474,-0.88967 -0.78305,-1.60096 -1.34684,-2.13476 -0.54616,-0.55161 -1.17185,-0.95207 -1.87659,-1.20118 -0.68711,-0.2491 -1.39272,-0.37304 -2.11506,-0.37304 z m 20.60921,0 c -1.2685,0 -2.3698,0.44431 -3.30357,1.33398 l -0.0527,-1.17383 h -2.24604 v 13.53125 h 2.37896 v -8.27343 c 0.15857,-1.29894 0.53672,-2.14566 1.13574,-2.53711 0.61664,-0.39146 1.21503,-0.58594 1.79643,-0.58594 0.58141,0 1.16422,0.22117 1.74562,0.66601 0.59902,0.42705 0.89724,1.38816 0.89724,2.88282 v 7.84765 h 2.37897 v -8.08789 c 0,-1.04982 -0.14034,-1.93083 -0.42224,-2.64258 -0.28189,-0.71174 -0.65224,-1.27998 -1.11031,-1.70703 -0.44046,-0.44483 -0.94335,-0.76521 -1.50713,-0.96093 -0.56379,-0.19573 -1.12709,-0.29297 -1.69089,-0.29297 z m 18.83625,0 c -1.30376,0 -2.38751,0.34707 -3.2508,1.04101 -0.8633,0.69395 -1.29407,1.6264 -1.29407,2.80078 0,1.121 0.37035,1.93147 1.11032,2.42969 0.75758,0.49822 1.5587,0.91584 2.40437,1.25391 1.23329,0.48043 2.11432,0.83704 2.64286,1.06836 0.54617,0.23131 0.81905,0.63937 0.81905,1.22656 0,0.64057 -0.25534,1.09442 -0.76627,1.36133 -0.49331,0.24911 -1.07417,0.375 -1.74366,0.375 -0.65187,0 -1.23273,-0.12589 -1.74366,-0.375 -0.51094,-0.24911 -0.92611,-0.68387 -1.24324,-1.30664 l -2.11311,0.56054 c 0.63425,2.27758 2.29886,3.41602 4.99445,3.41602 1.40946,0 2.60626,-0.32992 3.59289,-0.98828 1.00424,-0.67615 1.50713,-1.69066 1.50713,-3.04297 0,-1.13879 -0.35281,-1.98356 -1.05754,-2.53516 -0.6871,-0.5516 -1.50577,-1.00546 -2.45715,-1.36132 -1.19804,-0.44485 -2.08883,-0.78236 -2.67023,-1.01368 -0.56378,-0.23132 -0.84446,-0.60508 -0.84446,-1.12109 0,-0.46263 0.19296,-0.82685 0.58057,-1.09375 0.40521,-0.2669 0.9159,-0.40039 1.53255,-0.40039 1.0747,0 1.84269,0.5244 2.30076,1.57422 l 2.11312,-0.56055 c -0.29952,-1.12099 -0.83749,-1.94861 -1.6127,-2.48242 -0.75758,-0.5516 -1.69124,-0.82617 -2.80118,-0.82617 z M 72.155782,215.9707 v 8.08594 c 0,1.03203 0.14034,1.91304 0.422232,2.64258 0.281892,0.71175 0.642492,1.28954 1.082947,1.73437 0.458074,0.42705 0.968762,0.73982 1.532546,0.93555 0.581401,0.19573 1.154466,0.29297 1.718249,0.29297 1.338987,0 2.510451,-0.45386 3.514691,-1.36133 l 0.08015,1.20117 h 2.246039 V 215.9707 h -2.378965 v 8.27344 c -0.176182,1.29894 -0.599156,2.1437 -1.26865,2.53516 -0.651875,0.39145 -1.277566,0.58789 -1.876587,0.58789 -0.616638,0 -1.224787,-0.21358 -1.823808,-0.64063 -0.581401,-0.42704 -0.87183,-1.3977 -0.87183,-2.91015 v -7.84571 z m 54.153208,0 v 2.1875 h 2.77579 v 9.1543 h -2.77579 v 2.18945 h 7.92858 v -2.18945 h -2.77383 v -11.3418 z m 126.46239,0 v 8.08594 c 0,1.03203 0.14034,1.91304 0.42223,2.64258 0.2819,0.71175 0.64249,1.28954 1.08295,1.73437 0.45807,0.42705 0.96876,0.73982 1.53254,0.93555 0.5814,0.19573 1.15447,0.29297 1.71826,0.29297 1.33899,0 2.51045,-0.45386 3.51469,-1.36133 l 0.0802,1.20117 h 2.24604 V 215.9707 h -2.37897 v 8.27344 c -0.17618,1.29894 -0.59915,2.1437 -1.26864,2.53516 -0.65188,0.39145 -1.27757,0.58789 -1.87659,0.58789 -0.61664,0 -1.22284,-0.21358 -1.82186,-0.64063 -0.5814,-0.42704 -0.87378,-1.3977 -0.87378,-2.91015 v -7.84571 z m 35.54568,0 v 2.1875 h 2.77383 v 9.1543 h -2.77383 v 2.18945 h 7.92858 v -2.18945 h -2.77579 v -11.3418 z m -251.480202,2.13477 c 0.405219,0 0.810652,0.061 1.215872,0.18555 0.405219,0.12456 0.765818,0.35724 1.082946,0.69531 0.334747,0.33808 0.607634,0.80908 0.819053,1.41406 0.211419,0.60498 0.316674,1.38876 0.316674,2.34961 0,0.96086 -0.105255,1.74267 -0.316674,2.34766 -0.211419,0.60497 -0.484306,1.07598 -0.819053,1.41406 -0.317128,0.32028 -0.677727,0.54341 -1.082946,0.66797 -0.40522,0.12455 -0.810653,0.1875 -1.215872,0.1875 -0.387602,0 -0.793034,-0.063 -1.215872,-0.1875 -0.40522,-0.12456 -0.775568,-0.34769 -1.110314,-0.66797 -0.334746,-0.33808 -0.607633,-0.80909 -0.819052,-1.41406 -0.211418,-0.60499 -0.316673,-1.3868 -0.316673,-2.34766 0,-0.96085 0.105255,-1.74463 0.316673,-2.34961 0.211419,-0.60498 0.484306,-1.07598 0.819052,-1.41406 0.334746,-0.33807 0.705094,-0.57075 1.110314,-0.69531 0.422838,-0.12456 0.82827,-0.18555 1.215872,-0.18555 z m 131.419712,0 c 0.77519,0 1.50615,0.25742 2.19325,0.77344 0.68712,0.51601 1.12764,1.57436 1.32144,3.17578 v 1.92187 c -0.1938,1.4057 -0.65186,2.32296 -1.37421,2.75 -0.70473,0.42705 -1.40059,0.64063 -2.08771,0.64063 -0.3876,0 -0.79304,-0.063 -1.21587,-0.1875 -0.40522,-0.12456 -0.77361,-0.35529 -1.10835,-0.69336 -0.31713,-0.33808 -0.58222,-0.81104 -0.79364,-1.41602 -0.21142,-0.60498 -0.31668,-1.3868 -0.31668,-2.34765 0,-0.96086 0.10526,-1.74463 0.31668,-2.34961 0.21142,-0.60498 0.47651,-1.06643 0.79364,-1.38672 0.33474,-0.33807 0.69534,-0.57075 1.08294,-0.69531 0.40523,-0.12456 0.8009,-0.18555 1.18851,-0.18555 z m 54.51288,0 c 0.40522,0 0.81066,0.061 1.21588,0.18555 0.40522,0.12456 0.76581,0.35724 1.08294,0.69531 0.33474,0.33808 0.60764,0.80908 0.81905,1.41406 0.21142,0.60498 0.31667,1.38876 0.31667,2.34961 0,0.96086 -0.10525,1.74267 -0.31667,2.34766 -0.21141,0.60497 -0.48431,1.07598 -0.81905,1.41406 -0.31713,0.32028 -0.67772,0.54341 -1.08294,0.66797 -0.40522,0.12455 -0.81066,0.1875 -1.21588,0.1875 -0.3876,0 -0.79303,-0.063 -1.21587,-0.1875 -0.40522,-0.12456 -0.77558,-0.34769 -1.11032,-0.66797 -0.33474,-0.33808 -0.60762,-0.80909 -0.81904,-1.41406 -0.21143,-0.60499 -0.31668,-1.3868 -0.31668,-2.34766 0,-0.96085 0.10525,-1.74463 0.31668,-2.34961 0.21142,-0.60498 0.4843,-1.07598 0.81904,-1.41406 0.33474,-0.33807 0.7051,-0.57075 1.11032,-0.69531 0.42284,-0.12456 0.82827,-0.18555 1.21587,-0.18555 z m 87.10686,0 c 0.40522,0 0.81064,0.061 1.21586,0.18555 0.40522,0.12456 0.76582,0.35724 1.08295,0.69531 0.33475,0.33808 0.60763,0.80908 0.81905,1.41406 0.21142,0.60498 0.31863,1.38876 0.31863,2.34961 0,0.96086 -0.10721,1.74267 -0.31863,2.34766 -0.21142,0.60497 -0.4843,1.07598 -0.81905,1.41406 -0.31713,0.32028 -0.67773,0.54341 -1.08295,0.66797 -0.40522,0.12455 -0.81064,0.1875 -1.21586,0.1875 -0.38761,0 -0.79304,-0.063 -1.21588,-0.1875 -0.40522,-0.12456 -0.77557,-0.34769 -1.11031,-0.66797 -0.33475,-0.33808 -0.60764,-0.80909 -0.81905,-1.41406 -0.21142,-0.60499 -0.31668,-1.3868 -0.31668,-2.34766 0,-0.96085 0.10526,-1.74463 0.31668,-2.34961 0.21141,-0.60498 0.4843,-1.07598 0.81905,-1.41406 0.33474,-0.33807 0.70509,-0.57075 1.11031,-0.69531 0.42284,-0.12456 0.82827,-0.18555 1.21588,-0.18555 z m -297.106676,2.98828 h 3.514691 c 1.127567,0 2.008602,0.24982 2.642859,0.74805 0.651876,0.49821 0.977389,1.25529 0.977389,2.26953 0,1.01423 -0.325513,1.77891 -0.977389,2.29492 -0.634257,0.49822 -1.515292,0.74609 -2.642859,0.74609 h -3.514691 z m 387.272746,0 h 3.51469 c 1.12757,0 2.00861,0.24982 2.64286,0.74805 0.65188,0.49821 0.97739,1.25529 0.97739,2.26953 0,1.01423 -0.32551,1.77891 -0.97739,2.29492 -0.63425,0.49822 -1.51529,0.74609 -2.64286,0.74609 h -3.51469 z" />
</svg>
